<?xml version="1.0" standalone="no"?>
<!DOCTYPE svg PUBLIC "-//W3C//DTD SVG 20010904//EN"
 "http://www.w3.org/TR/2001/REC-SVG-20010904/DTD/svg10.dtd">
<svg version="1.0" xmlns="http://www.w3.org/2000/svg"
 width="269.000000pt" height="269.000000pt" viewBox="0 0 269.000000 269.000000"
 preserveAspectRatio="xMidYMid meet">
<metadata>
Created by potrace 1.11, written by Peter Selinger 2001-2013
</metadata>
<g transform="translate(0.000000,269.000000) scale(0.100000,-0.100000)"
fill="#000000" stroke="none">
<path d="M1132 2563 c-23 -16 -60 -25 -172 -42 -95 -15 -112 -22 -107 -42 4
-14 -7 -26 -39 -46 -24 -16 -74 -47 -111 -71 -56 -36 -72 -42 -100 -37 -46 8
-47 8 -48 -17 0 -14 -16 -32 -44 -52 -47 -33 -62 -56 -38 -56 8 0 20 -6 26
-14 9 -11 4 -27 -23 -72 -51 -88 -72 -159 -58 -198 7 -19 8 -45 3 -66 -4 -20
-4 -44 0 -55 4 -11 8 -38 8 -61 1 -28 8 -47 21 -59 14 -13 20 -31 20 -59 0
-23 7 -81 17 -129 14 -75 15 -94 4 -124 -20 -53 -15 -106 14 -183 31 -82 101
-155 158 -165 46 -9 62 -28 103 -121 66 -152 141 -247 234 -294 20 -10 42 -26
50 -35 22 -27 -12 -49 -155 -99 -288 -103 -315 -120 -315 -208 0 -29 3 -97 7
-150 l6 -98 323 0 323 0 -16 53 c-19 63 -62 267 -57 267 2 0 13 -18 24 -40 11
-22 25 -40 30 -40 11 0 56 68 70 105 5 14 13 25 17 25 7 0 35 -87 95 -297 12
-40 25 -73 30 -73 9 0 4 32 -13 84 -15 48 -11 76 32 204 l41 123 45 -65 c25
-36 54 -68 65 -72 20 -6 21 -11 14 -140 l-7 -134 325 0 c303 0 324 1 321 18
-2 9 -14 100 -25 202 -12 102 -26 197 -32 212 -7 20 -24 33 -62 47 -56 21
-196 52 -325 72 -88 14 -161 52 -161 85 0 9 15 34 34 57 76 95 105 170 134
342 l19 109 44 31 c31 22 54 51 78 97 29 57 33 76 34 144 2 84 -11 122 -58
174 -18 20 -24 42 -29 105 -3 44 -14 107 -22 140 -22 80 -29 182 -14 200 12
15 -6 59 -54 130 -14 20 -22 43 -19 51 3 9 -14 33 -48 64 -30 28 -57 50 -61
50 -5 0 -8 9 -8 20 0 12 -12 33 -26 47 -23 23 -24 28 -13 49 7 13 10 26 7 29
-3 3 -38 9 -78 12 -64 5 -73 9 -81 30 -10 27 -24 26 -90 -8 l-36 -18 -79 34
c-103 44 -124 48 -152 28z m588 -683 c7 -30 25 -82 40 -115 15 -33 31 -74 34
-91 l7 -31 -113 -7 c-103 -7 -254 -31 -336 -55 -18 -6 -49 -24 -68 -40 -27
-24 -44 -31 -77 -31 -23 1 -53 7 -67 15 -47 27 -239 13 -418 -30 -53 -13 -100
-21 -104 -19 -11 7 -10 57 3 145 l12 76 41 11 c46 12 129 79 151 122 15 28 16
28 88 23 76 -6 169 13 211 43 12 8 45 14 76 14 60 0 124 24 154 59 11 11 30
21 43 21 13 0 33 5 45 11 31 17 32 4 2 -50 -15 -28 -25 -53 -23 -55 8 -9 94
35 121 61 37 35 46 24 13 -16 -15 -17 -24 -31 -20 -31 22 0 50 28 67 68 l21
46 42 -45 c31 -33 45 -59 55 -99z m30 -318 c31 -25 41 -139 16 -178 -24 -35
-85 -60 -184 -74 -101 -15 -156 -9 -188 21 -29 27 -31 39 -5 32 10 -2 52 4 92
16 41 11 97 23 124 26 64 9 93 28 111 71 23 55 -7 86 -91 97 -16 2 0 5 36 6
51 1 72 -3 89 -17z m-249 -13 c-52 -10 -97 -17 -99 -15 -2 3 20 9 50 15 29 5
62 12 73 14 11 3 31 5 45 5 14 0 -17 -9 -69 -19z m448 -5 c32 -41 30 -172 -4
-240 -26 -53 -69 -104 -87 -104 -6 0 -8 11 -4 28 3 15 9 72 12 127 3 55 8 102
10 104 10 11 34 -25 35 -53 l2 -31 4 30 c3 17 -3 44 -13 63 -17 32 -17 33 7
59 l24 26 -22 -6 c-16 -3 -23 -1 -23 9 0 23 37 16 59 -12z m-255 -36 c15 -25
-22 -71 -67 -82 -40 -10 -58 -3 -39 16 7 7 12 29 12 51 l0 38 41 -3 c26 -2 46
-9 53 -20z m-174 3 c0 -13 -28 -22 -35 -11 -3 4 1 11 7 13 20 8 28 8 28 -2z
m-77 -51 c4 -20 16 -34 33 -42 l26 -12 -33 -12 c-42 -15 -96 -17 -104 -4 -10
16 15 79 37 95 26 18 34 13 41 -25z m-84 23 c0 -5 -4 -17 -9 -28 -8 -18 -9
-17 -9 8 -1 15 4 27 9 27 6 0 10 -3 9 -7z m-399 -13 c-30 -5 -71 -8 -90 -8
l-35 1 40 7 c22 4 63 7 90 7 l50 0 -55 -7z m-151 -19 c-46 -15 -67 -30 -77
-60 -9 -26 -7 -32 23 -61 22 -21 44 -33 62 -33 62 1 269 20 285 27 27 12 11
-30 -23 -58 -54 -45 -269 -74 -333 -45 -28 13 -50 61 -60 129 -6 40 -4 49 17
68 26 25 68 40 107 40 l25 0 -26 -7z m311 -39 c0 -9 -7 -6 -19 9 -11 13 -17
28 -14 33 7 11 33 -22 33 -42z m-66 22 c9 -3 25 -22 37 -41 22 -35 22 -36 4
-49 -20 -15 -105 -20 -105 -6 0 4 7 16 15 26 8 11 15 32 15 48 0 29 6 33 34
22z m-119 -14 c-3 -5 -12 -10 -20 -10 -8 0 -17 5 -20 10 -4 6 5 10 20 10 15 0
24 -4 20 -10z m-82 -30 c4 -16 15 -38 26 -49 20 -20 20 -20 -25 -27 -39 -5
-49 -3 -70 17 -30 28 -28 59 6 76 40 20 57 16 63 -17z m436 11 c11 -11 25 -39
31 -63 6 -24 14 -56 19 -73 8 -26 9 -27 10 -6 1 18 4 21 19 15 9 -5 71 -9 137
-9 137 0 238 22 286 62 35 30 33 41 18 -148 -12 -154 -38 -278 -73 -346 -49
-96 -52 -95 -50 19 2 115 -12 155 -66 183 -41 21 -61 19 -180 -16 -89 -26
-129 -32 -265 -38 -176 -8 -204 -17 -235 -66 -21 -34 -29 -121 -10 -110 6 4
10 -7 10 -27 1 -18 7 -51 15 -73 8 -21 12 -41 10 -43 -10 -10 -86 76 -127 144
-37 61 -168 374 -168 401 0 2 14 -7 31 -21 27 -23 40 -26 104 -26 80 0 194 19
265 45 68 24 88 48 96 117 5 46 12 63 32 78 31 25 67 25 91 1z m-735 -36 c3
-10 -1 -15 -12 -15 -14 0 -12 -4 7 -19 20 -16 23 -24 18 -57 -3 -22 -1 -48 3
-59 7 -16 9 -13 9 17 2 65 18 50 51 -45 17 -50 38 -104 46 -119 19 -36 18 -40
-8 -33 -33 10 -116 93 -140 139 -28 55 -36 148 -14 181 19 28 31 32 40 10z
m991 -401 c-27 -20 -134 -52 -197 -59 l-53 -5 55 15 c30 8 87 26 125 39 82 29
97 31 70 10z m72 -64 c-12 -131 -137 -256 -210 -211 -28 18 -118 4 -135 -20
-10 -14 -26 -19 -61 -19 -80 0 -166 69 -206 163 -22 54 -20 70 7 55 12 -7 32
-25 45 -39 74 -85 258 -98 401 -28 61 30 68 37 126 132 28 45 39 34 33 -33z
m-67 22 c0 -5 -16 -27 -35 -50 -24 -28 -54 -48 -93 -62 -70 -27 -204 -38 -256
-20 -35 11 -96 55 -96 68 0 4 42 6 92 4 95 -4 235 19 323 52 46 17 65 19 65 8z
m-270 -26 c8 -2 -43 -4 -113 -5 -71 0 -126 3 -123 7 5 8 199 6 236 -2z m387
-168 c-3 -7 -5 -2 -5 12 0 14 2 19 5 13 2 -7 2 -19 0 -25z m-663 -84 c3 -8 2
-12 -4 -9 -6 3 -10 10 -10 16 0 14 7 11 14 -7z m616 -57 c0 -8 -8 -22 -19 -31
-17 -16 -19 -16 -24 5 -3 13 -4 26 -1 31 8 13 44 9 44 -5z m0 -224 c-6 -29
-15 -53 -20 -53 -10 0 -90 109 -90 122 0 6 26 35 58 66 l57 57 3 -70 c2 -38
-2 -94 -8 -122z m-73 160 c4 -11 -5 -26 -31 -48 -33 -27 -43 -47 -80 -159
l-42 -128 -37 119 -38 120 -54 17 c-30 9 -55 20 -55 24 0 5 28 6 63 4 71 -5
173 17 222 48 38 23 44 24 52 3z m-305 -91 c28 -10 48 -23 48 -31 0 -17 -61
-121 -70 -121 -13 0 -79 147 -85 189 l-6 44 33 -32 c18 -17 54 -39 80 -49z"/>
<path d="M1453 1720 c-88 -23 -153 -55 -153 -76 0 -21 26 -16 145 26 l90 31
80 -15 c44 -8 89 -18 99 -22 13 -5 17 -4 13 3 -9 14 -123 59 -167 66 -19 2
-67 -3 -107 -13z"/>
<path d="M870 1641 c-52 -11 -91 -34 -146 -86 l-49 -46 45 26 c109 64 125 68
258 62 112 -4 122 -3 122 13 0 10 -7 21 -16 24 -27 10 -177 15 -214 7z"/>
<path d="M1415 1120 c12 -19 -13 -48 -39 -43 -18 4 -32 -4 -56 -31 l-33 -36
-34 21 c-25 16 -43 19 -68 15 -28 -6 -36 -3 -45 14 -6 11 -8 26 -4 32 4 7 3 8
-4 4 -34 -21 7 -71 51 -62 20 4 36 0 54 -14 36 -28 65 -25 91 10 16 21 31 30
52 30 19 0 33 7 40 19 13 25 13 51 -1 51 -5 0 -7 -4 -4 -10z"/>
</g>
</svg>
